<svg width="182" height="48" viewBox="0 0 182 48" fill="none" xmlns="http://www.w3.org/2000/svg">
<rect width="182" height="48" rx="4" fill="#35B3A9"/>
<path d="M76.4869 23.312H81.8789V25.328H76.4869V23.312ZM76.6789 27.92H82.7749V30H74.1029V18.8H82.5669V20.88H76.6789V27.92ZM90.5486 27.952L90.0046 28.528V21.392H92.5006V28.528L91.9246 27.952H95.8926L95.3326 28.528V21.392H97.8126V30H84.6766V21.392H87.1566V28.528L86.5966 27.952H90.5486ZM96.6926 31.712V29.424L97.2526 30H95.2686V27.952H99.0126V31.712H96.6926ZM104.416 30.128C103.434 30.128 102.57 29.936 101.824 29.552C101.088 29.168 100.517 28.6453 100.112 27.984C99.7065 27.312 99.5038 26.5493 99.5038 25.696C99.5038 24.832 99.7011 24.0693 100.096 23.408C100.501 22.736 101.05 22.2133 101.744 21.84C102.437 21.456 103.221 21.264 104.096 21.264C104.938 21.264 105.696 21.4453 106.368 21.808C107.05 22.16 107.589 22.672 107.984 23.344C108.378 24.0053 108.576 24.8 108.576 25.728C108.576 25.824 108.57 25.936 108.56 26.064C108.549 26.1813 108.538 26.2933 108.528 26.4H101.536V24.944H107.216L106.256 25.376C106.256 24.928 106.165 24.5387 105.984 24.208C105.802 23.8773 105.552 23.6213 105.232 23.44C104.912 23.248 104.538 23.152 104.112 23.152C103.685 23.152 103.306 23.248 102.976 23.44C102.656 23.6213 102.405 23.8827 102.224 24.224C102.042 24.5547 101.952 24.9493 101.952 25.408V25.792C101.952 26.2613 102.053 26.6773 102.256 27.04C102.469 27.392 102.762 27.664 103.136 27.856C103.52 28.0373 103.968 28.128 104.48 28.128C104.938 28.128 105.338 28.0587 105.68 27.92C106.032 27.7813 106.352 27.5733 106.64 27.296L107.968 28.736C107.573 29.184 107.077 29.5307 106.48 29.776C105.882 30.0107 105.194 30.128 104.416 30.128ZM105.664 20.208C105.354 20.208 105.093 20.1067 104.88 19.904C104.666 19.7013 104.56 19.4347 104.56 19.104C104.56 18.7733 104.666 18.5067 104.88 18.304C105.093 18.1013 105.354 18 105.664 18C105.973 18 106.234 18.1013 106.448 18.304C106.672 18.5067 106.784 18.7733 106.784 19.104C106.784 19.4347 106.672 19.7013 106.448 19.904C106.234 20.1067 105.973 20.208 105.664 20.208ZM102.432 20.208C102.122 20.208 101.856 20.1067 101.632 19.904C101.418 19.7013 101.312 19.4347 101.312 19.104C101.312 18.7733 101.418 18.5067 101.632 18.304C101.856 18.1013 102.122 18 102.432 18C102.741 18 103.002 18.1013 103.216 18.304C103.429 18.5067 103.536 18.7733 103.536 19.104C103.536 19.4347 103.429 19.7013 103.216 19.904C103.002 20.1067 102.741 20.208 102.432 20.208Z" fill="white"/>
</svg>
