<svg width="230" height="48" viewBox="0 0 230 48" fill="none" xmlns="http://www.w3.org/2000/svg">
<rect width="230" height="48" rx="4" fill="#E3F5F5"/>
<path d="M31.8422 18.8V30H29.2662V20.912H24.2102V30H21.6342V18.8H31.8422ZM38.4586 30.128C37.5519 30.128 36.7359 29.9413 36.0106 29.568C35.2959 29.184 34.7359 28.656 34.3306 27.984C33.9252 27.312 33.7226 26.5493 33.7226 25.696C33.7226 24.8427 33.9252 24.08 34.3306 23.408C34.7359 22.736 35.2959 22.2133 36.0106 21.84C36.7359 21.456 37.5519 21.264 38.4586 21.264C39.3652 21.264 40.1759 21.456 40.8906 21.84C41.6052 22.2133 42.1652 22.736 42.5706 23.408C42.9759 24.08 43.1786 24.8427 43.1786 25.696C43.1786 26.5493 42.9759 27.312 42.5706 27.984C42.1652 28.656 41.6052 29.184 40.8906 29.568C40.1759 29.9413 39.3652 30.128 38.4586 30.128ZM38.4586 28.08C39.0986 28.08 39.6212 27.8667 40.0266 27.44C40.4426 27.0027 40.6506 26.4213 40.6506 25.696C40.6506 24.9707 40.4426 24.3947 40.0266 23.968C39.6212 23.5307 39.0986 23.312 38.4586 23.312C37.8186 23.312 37.2906 23.5307 36.8746 23.968C36.4586 24.3947 36.2506 24.9707 36.2506 25.696C36.2506 26.4213 36.4586 27.0027 36.8746 27.44C37.2906 27.8667 37.8186 28.08 38.4586 28.08ZM54.4183 27.952V31.856H52.0983V30H46.0503V31.856H43.7303V27.952H44.0823C44.6156 27.9413 44.9836 27.6267 45.1863 27.008C45.389 26.3893 45.517 25.5093 45.5703 24.368L45.6823 21.392H53.1863V27.952H54.4183ZM47.8263 24.544C47.7943 25.4187 47.725 26.1333 47.6183 26.688C47.5223 27.2427 47.3356 27.664 47.0583 27.952H50.6903V23.44H47.8743L47.8263 24.544ZM60.0211 30.128C59.1144 30.128 58.2984 29.9413 57.5731 29.568C56.8584 29.184 56.2984 28.656 55.8931 27.984C55.4877 27.312 55.2851 26.5493 55.2851 25.696C55.2851 24.8427 55.4877 24.08 55.8931 23.408C56.2984 22.736 56.8584 22.2133 57.5731 21.84C58.2984 21.456 59.1144 21.264 60.0211 21.264C60.9277 21.264 61.7384 21.456 62.4531 21.84C63.1677 22.2133 63.7277 22.736 64.1331 23.408C64.5384 24.08 64.7411 24.8427 64.7411 25.696C64.7411 26.5493 64.5384 27.312 64.1331 27.984C63.7277 28.656 63.1677 29.184 62.4531 29.568C61.7384 29.9413 60.9277 30.128 60.0211 30.128ZM60.0211 28.08C60.6611 28.08 61.1837 27.8667 61.5891 27.44C62.0051 27.0027 62.2131 26.4213 62.2131 25.696C62.2131 24.9707 62.0051 24.3947 61.5891 23.968C61.1837 23.5307 60.6611 23.312 60.0211 23.312C59.3811 23.312 58.8531 23.5307 58.4371 23.968C58.0211 24.3947 57.8131 24.9707 57.8131 25.696C57.8131 26.4213 58.0211 27.0027 58.4371 27.44C58.8531 27.8667 59.3811 28.08 60.0211 28.08ZM71.4338 21.984C72.2551 21.984 72.9751 22.1547 73.5938 22.496C74.2125 22.8267 74.6871 23.296 75.0178 23.904C75.3591 24.512 75.5298 25.216 75.5298 26.016C75.5298 26.8373 75.3271 27.568 74.9218 28.208C74.5271 28.8373 73.9725 29.328 73.2578 29.68C72.5431 30.0213 71.7325 30.192 70.8258 30.192C69.3218 30.192 68.1378 29.712 67.2738 28.752C66.4205 27.7813 65.9938 26.3627 65.9938 24.496C65.9938 22.768 66.3671 21.392 67.1138 20.368C67.8711 19.3333 69.0285 18.656 70.5858 18.336L74.6818 17.52L75.0178 19.664L71.4018 20.384C70.4205 20.576 69.6898 20.896 69.2098 21.344C68.7405 21.792 68.4631 22.4267 68.3778 23.248C68.7511 22.8427 69.1991 22.5333 69.7218 22.32C70.2445 22.096 70.8151 21.984 71.4338 21.984ZM70.8418 28.256C71.4818 28.256 71.9938 28.048 72.3778 27.632C72.7725 27.216 72.9698 26.688 72.9698 26.048C72.9698 25.3973 72.7725 24.88 72.3778 24.496C71.9938 24.112 71.4818 23.92 70.8418 23.92C70.1911 23.92 69.6685 24.112 69.2738 24.496C68.8791 24.88 68.6818 25.3973 68.6818 26.048C68.6818 26.6987 68.8845 27.232 69.2898 27.648C69.6951 28.0533 70.2125 28.256 70.8418 28.256ZM82.2954 21.264C83.0954 21.264 83.8208 21.4507 84.4714 21.824C85.1328 22.1867 85.6501 22.704 86.0234 23.376C86.3968 24.0373 86.5834 24.8107 86.5834 25.696C86.5834 26.5813 86.3968 27.36 86.0234 28.032C85.6501 28.6933 85.1328 29.2107 84.4714 29.584C83.8208 29.9467 83.0954 30.128 82.2954 30.128C81.1968 30.128 80.3328 29.7813 79.7034 29.088V33.104H77.2074V21.392H79.5914V22.384C80.2101 21.6373 81.1114 21.264 82.2954 21.264ZM81.8634 28.08C82.5034 28.08 83.0261 27.8667 83.4314 27.44C83.8474 27.0027 84.0554 26.4213 84.0554 25.696C84.0554 24.9707 83.8474 24.3947 83.4314 23.968C83.0261 23.5307 82.5034 23.312 81.8634 23.312C81.2234 23.312 80.6954 23.5307 80.2794 23.968C79.8741 24.3947 79.6714 24.9707 79.6714 25.696C79.6714 26.4213 79.8741 27.0027 80.2794 27.44C80.6954 27.8667 81.2234 28.08 81.8634 28.08ZM91.5362 21.264C92.8695 21.264 93.8935 21.584 94.6082 22.224C95.3229 22.8533 95.6802 23.808 95.6802 25.088V30H93.3442V28.928C92.8749 29.728 92.0002 30.128 90.7202 30.128C90.0589 30.128 89.4829 30.016 88.9922 29.792C88.5122 29.568 88.1442 29.2587 87.8882 28.864C87.6322 28.4693 87.5042 28.0213 87.5042 27.52C87.5042 26.72 87.8029 26.0907 88.4002 25.632C89.0082 25.1733 89.9415 24.944 91.2002 24.944H93.1842C93.1842 24.4 93.0189 23.984 92.6882 23.696C92.3575 23.3973 91.8615 23.248 91.2002 23.248C90.7415 23.248 90.2882 23.3227 89.8402 23.472C89.4029 23.6107 89.0295 23.8027 88.7202 24.048L87.8242 22.304C88.2935 21.9733 88.8535 21.7173 89.5042 21.536C90.1655 21.3547 90.8429 21.264 91.5362 21.264ZM91.3442 28.448C91.7709 28.448 92.1495 28.352 92.4802 28.16C92.8109 27.9573 93.0455 27.664 93.1842 27.28V26.4H91.4722C90.4482 26.4 89.9362 26.736 89.9362 27.408C89.9362 27.728 90.0589 27.984 90.3042 28.176C90.5602 28.3573 90.9069 28.448 91.3442 28.448ZM105.08 23.44H102.168V30H99.6884V23.44H96.7764V21.392H105.08V23.44ZM111.067 24.144C112.187 24.1547 113.046 24.4107 113.643 24.912C114.24 25.4027 114.539 26.1013 114.539 27.008C114.539 27.9573 114.203 28.6987 113.531 29.232C112.87 29.7547 111.936 30.016 110.731 30.016L106.411 30V21.392H108.891V24.144H111.067ZM110.507 28.24C110.987 28.2507 111.355 28.1493 111.611 27.936C111.867 27.7227 111.995 27.4027 111.995 26.976C111.995 26.56 111.867 26.256 111.611 26.064C111.366 25.872 110.998 25.7707 110.507 25.76L108.891 25.744V28.24H110.507ZM129.19 21.392V30H126.694V23.44H123.11V30H120.63V21.392H129.19ZM135.679 30.128C134.761 30.128 133.935 29.9413 133.199 29.568C132.473 29.184 131.903 28.656 131.487 27.984C131.081 27.312 130.879 26.5493 130.879 25.696C130.879 24.8427 131.081 24.08 131.487 23.408C131.903 22.736 132.473 22.2133 133.199 21.84C133.935 21.456 134.761 21.264 135.679 21.264C136.585 21.264 137.375 21.456 138.047 21.84C138.729 22.2133 139.225 22.752 139.535 23.456L137.599 24.496C137.151 23.7067 136.505 23.312 135.663 23.312C135.012 23.312 134.473 23.5253 134.047 23.952C133.62 24.3787 133.407 24.96 133.407 25.696C133.407 26.432 133.62 27.0133 134.047 27.44C134.473 27.8667 135.012 28.08 135.663 28.08C136.516 28.08 137.161 27.6853 137.599 26.896L139.535 27.952C139.225 28.6347 138.729 29.168 138.047 29.552C137.375 29.936 136.585 30.128 135.679 30.128ZM141.052 21.392H143.532V26.512L147.724 21.392H150.012V30H147.532V24.88L143.356 30H141.052V21.392ZM157.819 30L155.931 27.36L153.979 30H151.259L154.571 25.664L151.371 21.392H154.171L155.995 23.904L157.867 21.392H160.523L157.323 25.6L160.651 30H157.819ZM165.646 30.128C164.739 30.128 163.923 29.9413 163.198 29.568C162.483 29.184 161.923 28.656 161.518 27.984C161.113 27.312 160.91 26.5493 160.91 25.696C160.91 24.8427 161.113 24.08 161.518 23.408C161.923 22.736 162.483 22.2133 163.198 21.84C163.923 21.456 164.739 21.264 165.646 21.264C166.553 21.264 167.363 21.456 168.078 21.84C168.793 22.2133 169.353 22.736 169.758 23.408C170.163 24.08 170.366 24.8427 170.366 25.696C170.366 26.5493 170.163 27.312 169.758 27.984C169.353 28.656 168.793 29.184 168.078 29.568C167.363 29.9413 166.553 30.128 165.646 30.128ZM165.646 28.08C166.286 28.08 166.809 27.8667 167.214 27.44C167.63 27.0027 167.838 26.4213 167.838 25.696C167.838 24.9707 167.63 24.3947 167.214 23.968C166.809 23.5307 166.286 23.312 165.646 23.312C165.006 23.312 164.478 23.5307 164.062 23.968C163.646 24.3947 163.438 24.9707 163.438 25.696C163.438 26.4213 163.646 27.0027 164.062 27.44C164.478 27.8667 165.006 28.08 165.646 28.08ZM180.214 21.392V30H177.718V23.44H174.998L174.918 24.96C174.875 26.0907 174.768 27.0293 174.598 27.776C174.427 28.5227 174.15 29.1093 173.766 29.536C173.382 29.9627 172.848 30.176 172.166 30.176C171.803 30.176 171.371 30.112 170.87 29.984L170.998 27.936C171.168 27.9573 171.291 27.968 171.366 27.968C171.739 27.968 172.016 27.8347 172.198 27.568C172.39 27.2907 172.518 26.944 172.582 26.528C172.646 26.1013 172.694 25.5413 172.726 24.848L172.854 21.392H180.214ZM186.646 30.128C185.739 30.128 184.923 29.9413 184.198 29.568C183.483 29.184 182.923 28.656 182.518 27.984C182.113 27.312 181.91 26.5493 181.91 25.696C181.91 24.8427 182.113 24.08 182.518 23.408C182.923 22.736 183.483 22.2133 184.198 21.84C184.923 21.456 185.739 21.264 186.646 21.264C187.553 21.264 188.363 21.456 189.078 21.84C189.793 22.2133 190.353 22.736 190.758 23.408C191.163 24.08 191.366 24.8427 191.366 25.696C191.366 26.5493 191.163 27.312 190.758 27.984C190.353 28.656 189.793 29.184 189.078 29.568C188.363 29.9413 187.553 30.128 186.646 30.128ZM186.646 28.08C187.286 28.08 187.809 27.8667 188.214 27.44C188.63 27.0027 188.838 26.4213 188.838 25.696C188.838 24.9707 188.63 24.3947 188.214 23.968C187.809 23.5307 187.286 23.312 186.646 23.312C186.006 23.312 185.478 23.5307 185.062 23.968C184.646 24.3947 184.438 24.9707 184.438 25.696C184.438 26.4213 184.646 27.0027 185.062 27.44C185.478 27.8667 186.006 28.08 186.646 28.08ZM199.979 23.44H195.563V30H193.083V21.392H199.979V23.44ZM204.646 21.264C205.979 21.264 207.003 21.584 207.718 22.224C208.432 22.8533 208.79 23.808 208.79 25.088V30H206.454V28.928C205.984 29.728 205.11 30.128 203.83 30.128C203.168 30.128 202.592 30.016 202.102 29.792C201.622 29.568 201.254 29.2587 200.998 28.864C200.742 28.4693 200.614 28.0213 200.614 27.52C200.614 26.72 200.912 26.0907 201.51 25.632C202.118 25.1733 203.051 24.944 204.31 24.944H206.294C206.294 24.4 206.128 23.984 205.798 23.696C205.467 23.3973 204.971 23.248 204.31 23.248C203.851 23.248 203.398 23.3227 202.95 23.472C202.512 23.6107 202.139 23.8027 201.83 24.048L200.934 22.304C201.403 21.9733 201.963 21.7173 202.614 21.536C203.275 21.3547 203.952 21.264 204.646 21.264ZM204.454 28.448C204.88 28.448 205.259 28.352 205.59 28.16C205.92 27.9573 206.155 27.664 206.294 27.28V26.4H204.582C203.558 26.4 203.046 26.736 203.046 27.408C203.046 27.728 203.168 27.984 203.414 28.176C203.67 28.3573 204.016 28.448 204.454 28.448Z" fill="#03B2A5"/>
</svg>
