<svg width="127" height="70" viewBox="0 0 127 70" fill="none" xmlns="http://www.w3.org/2000/svg">
<path d="M25.9818 18.776V27.64H21.1818V23H5.37375V27.64H0.57375L0.60575 18.776H1.50175C2.84575 18.7333 3.79508 17.752 4.34975 15.832C4.90442 13.912 5.24575 11.1707 5.37375 7.608L5.62975 0.599998H22.8458V18.776H25.9818ZM9.94975 8.088C9.84308 10.7547 9.61908 12.9947 9.27775 14.808C8.93642 16.6 8.41375 17.9227 7.70975 18.776H17.7257V4.824H10.0458L9.94975 8.088ZM35.7755 5.528C38.4422 5.528 40.4902 6.168 41.9195 7.448C43.3488 8.70667 44.0635 10.616 44.0635 13.176V23H39.3915V20.856C38.4528 22.456 36.7035 23.256 34.1435 23.256C32.8208 23.256 31.6688 23.032 30.6875 22.584C29.7275 22.136 28.9915 21.5173 28.4795 20.728C27.9675 19.9387 27.7115 19.0427 27.7115 18.04C27.7115 16.44 28.3088 15.1813 29.5035 14.264C30.7195 13.3467 32.5862 12.888 35.1035 12.888H39.0715C39.0715 11.8 38.7408 10.968 38.0795 10.392C37.4182 9.79467 36.4262 9.496 35.1035 9.496C34.1862 9.496 33.2795 9.64533 32.3835 9.944C31.5088 10.2213 30.7622 10.6053 30.1435 11.096L28.3515 7.608C29.2902 6.94667 30.4102 6.43467 31.7115 6.072C33.0342 5.70933 34.3888 5.528 35.7755 5.528ZM35.3915 19.896C36.2448 19.896 37.0022 19.704 37.6635 19.32C38.3248 18.9147 38.7942 18.328 39.0715 17.56V15.8H35.6475C33.5995 15.8 32.5755 16.472 32.5755 17.816C32.5755 18.456 32.8208 18.968 33.3115 19.352C33.8235 19.7147 34.5168 19.896 35.3915 19.896ZM58.544 5.528C60.144 5.528 61.5947 5.90133 62.896 6.648C64.2187 7.37333 65.2533 8.408 66 9.752C66.7467 11.0747 67.12 12.6213 67.12 14.392C67.12 16.1627 66.7467 17.72 66 19.064C65.2533 20.3867 64.2187 21.4213 62.896 22.168C61.5947 22.8933 60.144 23.256 58.544 23.256C56.3467 23.256 54.6187 22.5627 53.36 21.176V29.208H48.368V5.784H53.136V7.768C54.3733 6.27467 56.176 5.528 58.544 5.528ZM57.68 19.16C58.96 19.16 60.0053 18.7333 60.816 17.88C61.648 17.0053 62.064 15.8427 62.064 14.392C62.064 12.9413 61.648 11.7893 60.816 10.936C60.0053 10.0613 58.96 9.624 57.68 9.624C56.4 9.624 55.344 10.0613 54.512 10.936C53.7013 11.7893 53.296 12.9413 53.296 14.392C53.296 15.8427 53.7013 17.0053 54.512 17.88C55.344 18.7333 56.4 19.16 57.68 19.16ZM70.6188 5.784H75.5788V16.024L83.9628 5.784H88.5388V23H83.5788V12.76L75.2268 23H70.6188V5.784ZM107.802 9.88H101.978V23H97.0175V9.88H91.1935V5.784H107.802V9.88ZM126.48 14.456C126.48 14.52 126.448 14.968 126.384 15.8H113.36C113.594 16.8667 114.149 17.7093 115.024 18.328C115.898 18.9467 116.986 19.256 118.288 19.256C119.184 19.256 119.973 19.128 120.656 18.872C121.36 18.5947 122.01 18.168 122.608 17.592L125.264 20.472C123.642 22.328 121.274 23.256 118.16 23.256C116.218 23.256 114.501 22.8827 113.008 22.136C111.514 21.368 110.362 20.312 109.552 18.968C108.741 17.624 108.336 16.0987 108.336 14.392C108.336 12.7067 108.73 11.192 109.52 9.848C110.33 8.48267 111.429 7.42667 112.816 6.68C114.224 5.912 115.792 5.528 117.52 5.528C119.205 5.528 120.73 5.89067 122.096 6.616C123.461 7.34133 124.528 8.38667 125.296 9.752C126.085 11.096 126.48 12.664 126.48 14.456ZM117.552 9.304C116.421 9.304 115.472 9.624 114.704 10.264C113.936 10.904 113.466 11.7787 113.296 12.888H121.776C121.605 11.8 121.136 10.936 120.368 10.296C119.6 9.63467 118.661 9.304 117.552 9.304ZM19.5055 54.04C20.5295 54.36 21.3188 54.8507 21.8735 55.512C22.4495 56.1733 22.7375 56.9627 22.7375 57.88C22.7375 58.968 22.3642 59.928 21.6175 60.76C20.8708 61.5707 19.8468 62.2 18.5455 62.648C17.2442 63.096 15.7722 63.32 14.1295 63.32C12.7855 63.32 11.4628 63.1813 10.1615 62.904C8.86017 62.6267 7.65483 62.2107 6.5455 61.656L7.8895 58.168C9.70283 59.0427 11.7082 59.48 13.9055 59.48C15.0788 59.48 15.9962 59.3093 16.6575 58.968C17.3402 58.6053 17.6815 58.104 17.6815 57.464C17.6815 56.9093 17.4468 56.4933 16.9775 56.216C16.5082 55.9173 15.8255 55.768 14.9295 55.768H11.4095V52.664H14.4815C15.3562 52.664 16.0282 52.5253 16.4975 52.248C16.9668 51.9707 17.2015 51.5653 17.2015 51.032C17.2015 50.4773 16.9028 50.0507 16.3055 49.752C15.7295 49.4533 14.8975 49.304 13.8095 49.304C12.1455 49.304 10.3322 49.6987 8.3695 50.488L7.1535 47.032C9.54283 45.9867 11.8682 45.464 14.1295 45.464C15.6868 45.464 17.0735 45.656 18.2895 46.04C19.5268 46.424 20.4975 46.9893 21.2015 47.736C21.9055 48.4613 22.2575 49.3147 22.2575 50.296C22.2575 51.1067 22.0122 51.8427 21.5215 52.504C21.0308 53.144 20.3588 53.656 19.5055 54.04ZM33.0568 45.528C35.7234 45.528 37.7714 46.168 39.2008 47.448C40.6301 48.7067 41.3448 50.616 41.3448 53.176V63H36.6728V60.856C35.7341 62.456 33.9848 63.256 31.4248 63.256C30.1021 63.256 28.9501 63.032 27.9688 62.584C27.0088 62.136 26.2728 61.5173 25.7608 60.728C25.2488 59.9387 24.9928 59.0427 24.9928 58.04C24.9928 56.44 25.5901 55.1813 26.7848 54.264C28.0008 53.3467 29.8674 52.888 32.3848 52.888H36.3528C36.3528 51.8 36.0221 50.968 35.3608 50.392C34.6994 49.7947 33.7074 49.496 32.3848 49.496C31.4674 49.496 30.5608 49.6453 29.6648 49.944C28.7901 50.2213 28.0434 50.6053 27.4248 51.096L25.6328 47.608C26.5714 46.9467 27.6914 46.4347 28.9928 46.072C30.3154 45.7093 31.6701 45.528 33.0568 45.528ZM32.6728 59.896C33.5261 59.896 34.2834 59.704 34.9448 59.32C35.6061 58.9147 36.0754 58.328 36.3528 57.56V55.8H32.9288C30.8808 55.8 29.8568 56.472 29.8568 57.816C29.8568 58.456 30.1021 58.968 30.5928 59.352C31.1048 59.7147 31.7981 59.896 32.6728 59.896ZM55.6333 46.968C57.2759 46.968 58.7159 47.3093 59.9533 47.992C61.1906 48.6533 62.1399 49.592 62.8013 50.808C63.4839 52.024 63.8253 53.432 63.8253 55.032C63.8253 56.6747 63.4199 58.136 62.6093 59.416C61.8199 60.6747 60.7106 61.656 59.2812 62.36C57.8519 63.0427 56.2306 63.384 54.4173 63.384C51.4093 63.384 49.0413 62.424 47.3133 60.504C45.6066 58.5627 44.7533 55.7253 44.7533 51.992C44.7533 48.536 45.4999 45.784 46.9933 43.736C48.5079 41.6667 50.8226 40.312 53.9373 39.672L62.1293 38.04L62.8013 42.328L55.5693 43.768C53.6066 44.152 52.1453 44.792 51.1853 45.688C50.2466 46.584 49.6919 47.8533 49.5213 49.496C50.2679 48.6853 51.1639 48.0667 52.2093 47.64C53.2546 47.192 54.3959 46.968 55.6333 46.968ZM54.4493 59.512C55.7293 59.512 56.7533 59.096 57.5213 58.264C58.3106 57.432 58.7053 56.376 58.7053 55.096C58.7053 53.7947 58.3106 52.76 57.5213 51.992C56.7533 51.224 55.7293 50.84 54.4493 50.84C53.1479 50.84 52.1026 51.224 51.3133 51.992C50.5239 52.76 50.1293 53.7947 50.1293 55.096C50.1293 56.3973 50.5346 57.464 51.3453 58.296C52.1559 59.1067 53.1906 59.512 54.4493 59.512ZM75.2765 63.256C73.4632 63.256 71.8312 62.8827 70.3805 62.136C68.9512 61.368 67.8312 60.312 67.0205 58.968C66.2098 57.624 65.8045 56.0987 65.8045 54.392C65.8045 52.6853 66.2098 51.16 67.0205 49.816C67.8312 48.472 68.9512 47.4267 70.3805 46.68C71.8312 45.912 73.4632 45.528 75.2765 45.528C77.0898 45.528 78.7112 45.912 80.1405 46.68C81.5698 47.4267 82.6898 48.472 83.5005 49.816C84.3112 51.16 84.7165 52.6853 84.7165 54.392C84.7165 56.0987 84.3112 57.624 83.5005 58.968C82.6898 60.312 81.5698 61.368 80.1405 62.136C78.7112 62.8827 77.0898 63.256 75.2765 63.256ZM75.2765 59.16C76.5565 59.16 77.6018 58.7333 78.4125 57.88C79.2445 57.0053 79.6605 55.8427 79.6605 54.392C79.6605 52.9413 79.2445 51.7893 78.4125 50.936C77.6018 50.0613 76.5565 49.624 75.2765 49.624C73.9965 49.624 72.9405 50.0613 72.1085 50.936C71.2765 51.7893 70.8605 52.9413 70.8605 54.392C70.8605 55.8427 71.2765 57.0053 72.1085 57.88C72.9405 58.7333 73.9965 59.16 75.2765 59.16ZM101.989 49.88H96.165V63H91.205V49.88H85.381V45.784H101.989V49.88ZM122.054 45.784L114.278 64.056C113.489 66.04 112.508 67.4373 111.334 68.248C110.182 69.0587 108.785 69.464 107.142 69.464C106.246 69.464 105.361 69.3253 104.486 69.048C103.612 68.7707 102.897 68.3867 102.342 67.896L104.166 64.344C104.55 64.6853 104.988 64.952 105.478 65.144C105.99 65.336 106.492 65.432 106.982 65.432C107.665 65.432 108.22 65.2613 108.646 64.92C109.073 64.6 109.457 64.056 109.798 63.288L109.862 63.128L102.406 45.784H107.558L112.39 57.464L117.254 45.784H122.054Z" fill="white"/>
</svg>
